<?xml version="1.0" standalone="no"?>
<!DOCTYPE svg PUBLIC "-//W3C//DTD SVG 20010904//EN"
 "http://www.w3.org/TR/2001/REC-SVG-20010904/DTD/svg10.dtd">
<svg version="1.0" xmlns="http://www.w3.org/2000/svg"
 width="495.000000pt" height="495.000000pt" viewBox="0 0 495.000000 495.000000"
 preserveAspectRatio="xMidYMid meet">
<metadata>
Created by potrace 1.11, written by Peter Selinger 2001-2013
</metadata>
<g transform="translate(0.000000,495.000000) scale(0.100000,-0.100000)"
fill="#000000" stroke="none">
<path d="M0 2475 l0 -2475 2475 0 2475 0 0 2475 0 2475 -2475 0 -2475 0 0
-2475z m3036 1373 c213 -65 381 -247 450 -488 25 -89 26 -280 1 -370 -24 -89
-86 -214 -136 -277 -44 -54 -139 -132 -191 -154 -30 -14 -40 -29 -19 -29 7 0
55 -21 107 -47 78 -38 110 -61 176 -127 93 -93 143 -181 177 -311 27 -105 29
-272 4 -370 -56 -226 -232 -397 -495 -479 -167 -53 -215 -56 -977 -56 l-703 0
0 1366 0 1365 778 -4 c667 -3 784 -6 828 -19z"/>
<path d="M1960 3065 l0 -345 338 0 c356 0 448 8 512 40 130 67 193 206 169
376 -17 124 -72 203 -173 250 -51 24 -51 24 -448 24 l-398 0 0 -345z"/>
<path d="M1960 1950 l0 -361 438 3 c432 3 438 3 487 26 105 48 190 168 202
287 7 64 -11 164 -39 219 -31 60 -103 131 -161 157 -52 24 -54 24 -489 27
l-438 3 0 -361z"/>
</g>
</svg>
